<svg width="24" height="24" viewBox="0 0 24 24" fill="none" xmlns="http://www.w3.org/2000/svg">
    <path fill-rule="evenodd" clip-rule="evenodd" d="M3.9 14.4999C4.39706 14.4999 4.8 14.9477 4.8 15.4999V18.9999H19.2V15.4999C19.2 14.9477 19.6029 14.4999 20.1 14.4999C20.5971 14.4999 21 14.9477 21 15.4999V19.9999C21 20.5522 20.5971 20.9999 20.1 20.9999H3.9C3.40294 20.9999 3 20.5522 3 19.9999V15.4999C3 14.9477 3.40294 14.4999 3.9 14.4999Z" fill="#919191"/>
    <path fill-rule="evenodd" clip-rule="evenodd" d="M12 16.5C11.4083 16.5 10.9286 16.0203 10.9286 15.4286L10.9286 6.65808L7.82904 9.75761C7.41062 10.176 6.73223 10.176 6.31381 9.75761C5.89539 9.33919 5.89539 8.6608 6.31381 8.24238L11.2424 3.31381C11.6608 2.89539 12.3392 2.89539 12.7576 3.31381L17.6862 8.24239C18.1046 8.6608 18.1046 9.3392 17.6862 9.75761C17.2678 10.176 16.5894 10.176 16.171 9.75761L13.0714 6.65808L13.0714 15.4286C13.0714 16.0203 12.5917 16.5 12 16.5Z" fill="#919191"/>
</svg>
