<svg width="20" height="20" viewBox="0 0 20 20" fill="none" xmlns="http://www.w3.org/2000/svg">
    <circle cx="10" cy="10" r="7.5" fill="#FF4245"/>
    <path d="M10.8446 11.8161H9.42948L9.27921 5.41699H10.9823L10.8446 11.8161ZM9.1665 13.6069C9.1665 13.4357 9.21033 13.2771 9.29799 13.131C9.38565 12.9807 9.50462 12.8618 9.65489 12.7741C9.80516 12.6865 9.96796 12.6426 10.1433 12.6426C10.3144 12.6426 10.473 12.6865 10.6191 12.7741C10.7694 12.8618 10.8884 12.9807 10.976 13.131C11.0637 13.2771 11.1075 13.4357 11.1075 13.6069C11.1075 13.7822 11.0637 13.945 10.976 14.0953C10.8884 14.2455 10.7694 14.3645 10.6191 14.4522C10.473 14.5398 10.3144 14.5837 10.1433 14.5837C9.96796 14.5837 9.80516 14.5398 9.65489 14.4522C9.50462 14.3645 9.38565 14.2455 9.29799 14.0953C9.21033 13.945 9.1665 13.7822 9.1665 13.6069Z" />
</svg>
