<svg width="24" height="24" viewBox="0 0 24 24" fill="none" xmlns="http://www.w3.org/2000/svg">
    <path fill-rule="evenodd" clip-rule="evenodd" d="M18.3642 5.63615C18.7547 6.02668 18.7547 6.65984 18.3642 7.05037L7.05047 18.3641C6.65995 18.7546 6.02678 18.7546 5.63626 18.3641C5.24574 17.9736 5.24573 17.3404 5.63626 16.9499L16.95 5.63615C17.3405 5.24563 17.9737 5.24563 18.3642 5.63615Z" fill="#918B92"/>
    <path fill-rule="evenodd" clip-rule="evenodd" d="M5.63567 5.63582C6.02619 5.24529 6.65936 5.24529 7.04988 5.63582L18.3636 16.9495C18.7541 17.3401 18.7541 17.9732 18.3636 18.3637C17.9731 18.7543 17.3399 18.7543 16.9494 18.3637L5.63567 7.05003C5.24514 6.65951 5.24514 6.02634 5.63567 5.63582Z" fill="#918B92"/>
</svg>
