<svg width="25" height="24" viewBox="0 0 25 24" fill="none" xmlns="http://www.w3.org/2000/svg">
    <path fill-rule="evenodd" clip-rule="evenodd" d="M11.5 3C10.3954 3 9.5 3.89543 9.5 5H6C5.17157 5 4.5 5.67157 4.5 6.5C4.5 7.15311 4.9174 7.70873 5.5 7.91465V18C5.5 19.6569 6.84315 21 8.5 21H16.5C18.1569 21 19.5 19.6569 19.5 18V7.91465C20.0826 7.70873 20.5 7.15311 20.5 6.5C20.5 5.67157 19.8284 5 19 5H15.5C15.5 3.89543 14.6046 3 13.5 3H11.5ZM7.5 18V8H17.5V18C17.5 18.5523 17.0523 19 16.5 19H8.5C7.94772 19 7.5 18.5523 7.5 18ZM9.5 10L9.5 17H11.5L11.5 10H9.5ZM13.5 17V10H15.5V17H13.5Z" fill="#726D74"/>
</svg>
