<svg width="20" height="20" viewBox="0 0 20 20" fill="none" xmlns="http://www.w3.org/2000/svg">
<path d="M15.1436 2.92871C16.2988 3.0517 17.1473 4.06976 16.9786 5.19922L16.274 9.91602L15.4571 16.1641C15.3262 17.1649 14.4368 17.916 13.3821 17.916V15.916L14.0356 10.916H5.96439L6.61793 15.916V17.916L6.42187 17.9072C5.51918 17.8267 4.77098 17.1953 4.57561 16.3486L4.54294 16.1641L3.72601 9.91602L3.02141 5.19922C2.84145 3.99447 3.8188 2.91623 5.0913 2.91602H14.9087L15.1436 2.92871ZM13.3821 15.916V17.916H6.61793V15.916H13.3821ZM5.68868 8.91602H14.3113L14.9087 4.91602H5.0913L5.68868 8.91602Z" fill="#CDCACE"/>
<path d="M6.54545 16.916H13.4545L13.7273 14.916H6.27273L6.54545 16.916Z" fill="#CDCACE"/>
</svg>
