<svg width="21" height="20" viewBox="0 0 21 20" fill="none" xmlns="http://www.w3.org/2000/svg">
<path d="M13.25 13.3333V11.0625L12.3125 9.375C12.2153 9.44444 12.1389 9.53472 12.0833 9.64583C12.0278 9.75694 12 9.875 12 10V14.7708L14.1458 18.3333H12.2083L10.3333 15.25V10C10.3333 9.56944 10.4375 9.17361 10.6458 8.8125C10.8542 8.45139 11.1389 8.15278 11.5 7.91667L10.3333 5.85417C10.0556 5.32639 9.93403 4.76736 9.96875 4.17708C10.0035 3.58681 10.2292 3.08333 10.6458 2.66667L12.0625 1.25L17.8125 8L18.6667 18.3333H17L16.1875 8.66667L11.9583 3.70833L11.8333 3.83333C11.6944 3.97222 11.6146 4.13194 11.5937 4.3125C11.5729 4.49306 11.6042 4.66667 11.6875 4.83333L14.9167 10.625V13.3333H13.25ZM5.75 13.3333V10.625L8.97917 4.83333C9.0625 4.66667 9.09375 4.49306 9.07292 4.3125C9.05208 4.13194 8.97222 3.97222 8.83333 3.83333L8.70833 3.70833L4.47917 8.66667L3.66667 18.3333H2L2.85417 8L8.60417 1.25L10.0208 2.66667C10.4375 3.08333 10.6632 3.58681 10.6979 4.17708C10.7326 4.76736 10.6111 5.32639 10.3333 5.85417L9.16667 7.91667C9.52778 8.15278 9.8125 8.45139 10.0208 8.8125C10.2292 9.17361 10.3333 9.56944 10.3333 10V15.25L8.45833 18.3333H6.52083L8.66667 14.7708V10C8.66667 9.875 8.63889 9.75694 8.58333 9.64583C8.52778 9.53472 8.45139 9.44444 8.35417 9.375L7.41667 11.0625V13.3333H5.75Z" fill="#CDCACE"/>
</svg>
