<svg width="24" height="24" viewBox="0 0 24 24" fill="none" xmlns="http://www.w3.org/2000/svg">
<g clip-path="url(#clip0_3602_5898)">
<path d="M11 10.1111L11 3.88889C11 3.4 10.1 3 9 3L5 3C3.9 3 3 3.4 3 3.88889L3 10.1111C3 10.6 3.9 11 5 11L9 11C10.1 11 11 10.6 11 10.1111Z" fill="#918B92"/>
<path d="M21 10.1111L21 3.88889C21 3.4 20.1 3 19 3L15 3C13.9 3 13 3.4 13 3.88889L13 10.1111C13 10.6 13.9 11 15 11L19 11C20.1 11 21 10.6 21 10.1111Z" fill="#918B92"/>
<path d="M11 20.1111L11 13.8889C11 13.4 10.1 13 9 13L5 13C3.9 13 3 13.4 3 13.8889L3 20.1111C3 20.6 3.9 21 5 21L9 21C10.1 21 11 20.6 11 20.1111Z" fill="#918B92"/>
<path d="M21 20.1111L21 13.8889C21 13.4 20.1 13 19 13L15 13C13.9 13 13 13.4 13 13.8889L13 20.1111C13 20.6 13.9 21 15 21L19 21C20.1 21 21 20.6 21 20.1111Z" fill="#918B92"/>
</g>
<defs>
<clipPath id="clip0_3602_5898">
<rect width="24" height="24" fill="white"/>
</clipPath>
</defs>
</svg>
