<svg width="21" height="20" viewBox="0 0 21 20" fill="none" xmlns="http://www.w3.org/2000/svg">
<path d="M9.83268 11.666H11.4993V5.83268H9.83268V11.666ZM12.3327 10.416H13.9993V6.66602H12.3327V10.416ZM7.33268 9.99935H8.99935V6.66602H7.33268V9.99935ZM5.66602 18.3327V14.7493C4.87435 14.0271 4.25977 13.1834 3.82227 12.2181C3.38477 11.2528 3.16602 10.2355 3.16602 9.16602C3.16602 7.08268 3.89518 5.31185 5.35352 3.85352C6.81185 2.39518 8.58268 1.66602 10.666 1.66602C12.4021 1.66602 13.9403 2.17643 15.2806 3.19727C16.6209 4.2181 17.4924 5.54796 17.8952 7.18685L18.9785 11.4577C19.048 11.7216 18.9993 11.9612 18.8327 12.1764C18.666 12.3917 18.4438 12.4993 18.166 12.4993H16.4993V14.9993C16.4993 15.4577 16.3362 15.85 16.0098 16.1764C15.6834 16.5028 15.291 16.666 14.8327 16.666H13.166V18.3327H11.4993V14.9993H14.8327V10.8327H17.0827L16.291 7.60352C15.9716 6.33963 15.291 5.31185 14.2493 4.52018C13.2077 3.72852 12.0132 3.33268 10.666 3.33268C9.0549 3.33268 7.6799 3.89518 6.54102 5.02018C5.40213 6.14518 4.83268 7.51324 4.83268 9.12435C4.83268 9.95768 5.00282 10.7493 5.3431 11.4993C5.68338 12.2493 6.16602 12.916 6.79102 13.4993L7.33268 13.9993V18.3327H5.66602Z" fill="#CDCACE"/>
</svg>
