<svg width="24" height="25" viewBox="0 0 24 25" fill="none" xmlns="http://www.w3.org/2000/svg">
    <path fill-rule="evenodd" clip-rule="evenodd" d="M3.9 14.9999C4.39706 14.9999 4.8 15.4477 4.8 15.9999V19.4999H19.2V15.9999C19.2 15.4477 19.6029 14.9999 20.1 14.9999C20.5971 14.9999 21 15.4477 21 15.9999V20.4999C21 21.0522 20.5971 21.4999 20.1 21.4999H3.9C3.40294 21.4999 3 21.0522 3 20.4999V15.9999C3 15.4477 3.40294 14.9999 3.9 14.9999Z" fill="#918B92"/>
    <path fill-rule="evenodd" clip-rule="evenodd" d="M12 17C11.4083 17 10.9286 16.5203 10.9286 15.9286L10.9286 7.15808L7.82904 10.2576C7.41062 10.676 6.73223 10.676 6.31381 10.2576C5.89539 9.83919 5.89539 9.1608 6.31381 8.74238L11.2424 3.81381C11.6608 3.39539 12.3392 3.39539 12.7576 3.81381L17.6862 8.74239C18.1046 9.1608 18.1046 9.8392 17.6862 10.2576C17.2678 10.676 16.5894 10.676 16.171 10.2576L13.0714 7.15808L13.0714 15.9286C13.0714 16.5203 12.5917 17 12 17Z" fill="#918B92"/>
</svg>
