<svg width="20" height="20" viewBox="0 0 20 20" fill="none" xmlns="http://www.w3.org/2000/svg">
<g clip-path="url(#clip0_4035_6991)">
<path d="M16.666 4.99935H13.3327C13.3327 3.15768 11.841 1.66602 9.99935 1.66602C8.15768 1.66602 6.66602 3.15768 6.66602 4.99935H3.33268C2.41602 4.99935 1.66602 5.74935 1.66602 6.66602V16.666C1.66602 17.5827 2.41602 18.3327 3.33268 18.3327H16.666C17.5827 18.3327 18.3327 17.5827 18.3327 16.666V6.66602C18.3327 5.74935 17.5827 4.99935 16.666 4.99935ZM9.99935 3.33268C10.916 3.33268 11.666 4.08268 11.666 4.99935H8.33268C8.33268 4.08268 9.08268 3.33268 9.99935 3.33268ZM16.666 16.666H3.33268V6.66602H6.66602V8.33268C6.66602 8.79102 7.04102 9.16602 7.49935 9.16602C7.95768 9.16602 8.33268 8.79102 8.33268 8.33268V6.66602H11.666V8.33268C11.666 8.79102 12.041 9.16602 12.4993 9.16602C12.9577 9.16602 13.3327 8.79102 13.3327 8.33268V6.66602H16.666V16.666Z" fill="#CDCACE"/>
</g>
<defs>
<clipPath id="clip0_4035_6991">
<rect width="20" height="20" fill="white"/>
</clipPath>
</defs>
</svg>
