<svg width="21" height="20" viewBox="0 0 21 20" fill="none" xmlns="http://www.w3.org/2000/svg">
<g clip-path="url(#clip0_4035_7014)">
<path d="M15.4993 13.3327H16.7493V15.8327H15.4993V13.3327ZM2.16602 13.3327H14.666V15.8327H2.16602V13.3327ZM13.8577 8.49935H12.5827C11.7327 8.49935 11.041 7.68268 11.041 6.83268C11.041 5.98268 11.7327 5.37435 12.5827 5.37435V4.12435C11.041 4.12435 9.79102 5.37435 9.79102 6.91602C9.79102 8.45768 11.041 9.70768 12.5827 9.70768H13.8577C14.7327 9.70768 15.4993 10.3243 15.4993 11.416V12.4993H16.7493V11.1327C16.7493 9.62435 15.416 8.49935 13.8577 8.49935ZM17.5827 13.3327H18.8327V15.8327H17.5827V13.3327ZM16.2077 6.44102C16.7243 5.93268 17.041 5.23268 17.041 4.45768C17.041 2.91602 15.791 1.66602 14.2493 1.66602V2.91602C15.0993 2.91602 15.791 3.60768 15.791 4.45768C15.791 5.30768 15.0993 5.99935 14.2493 5.99935V7.24935C16.116 7.24935 17.5827 8.77435 17.5827 10.641V12.4993H18.8327V10.6327C18.8327 8.78268 17.766 7.18268 16.2077 6.44102Z" fill="#CCCCCC"/>
</g>
<defs>
<clipPath id="clip0_4035_7014">
<rect width="20" height="20" fill="white" transform="translate(0.5)"/>
</clipPath>
</defs>
</svg>
