<svg width="48" height="24" viewBox="0 0 48 24" fill="none" xmlns="http://www.w3.org/2000/svg">
    <rect width="48" height="24" rx="12" fill="#AFAAB1"/>
    <circle cx="12" cy="12" r="9" fill="white"/>
    <path d="M30.1094 11.7578C30.1094 12.6367 29.9492 13.4062 29.6289 14.0664C29.3086 14.7227 28.8633 15.2285 28.293 15.584C27.7266 15.9395 27.082 16.1172 26.3594 16.1172C25.6328 16.1172 24.9844 15.9395 24.4141 15.584C23.8477 15.2285 23.4043 14.7227 23.084 14.0664C22.7676 13.4062 22.6094 12.6367 22.6094 11.7578C22.6094 10.8789 22.7676 10.1113 23.084 9.45508C23.4043 8.79492 23.8477 8.28711 24.4141 7.93164C24.9844 7.57617 25.6328 7.39844 26.3594 7.39844C27.082 7.39844 27.7266 7.57617 28.293 7.93164C28.8633 8.28711 29.3086 8.79492 29.6289 9.45508C29.9492 10.1113 30.1094 10.8789 30.1094 11.7578ZM23.6289 11.7578C23.6289 12.4648 23.748 13.0723 23.9863 13.5801C24.2246 14.0879 24.5488 14.4727 24.959 14.7344C25.373 14.9961 25.8398 15.1289 26.3594 15.1328C26.8789 15.1289 27.3438 14.9961 27.7539 14.7344C28.168 14.4727 28.4941 14.0879 28.7324 13.5801C28.9707 13.0723 29.0898 12.4648 29.0898 11.7578C29.0898 11.0469 28.9707 10.4375 28.7324 9.92969C28.4941 9.42188 28.168 9.03711 27.7539 8.77539C27.3438 8.51367 26.8789 8.38281 26.3594 8.38281C25.8398 8.38281 25.373 8.51367 24.959 8.77539C24.5488 9.03711 24.2246 9.42188 23.9863 9.92969C23.748 10.4375 23.6289 11.0469 23.6289 11.7578ZM31.6562 7.51562H36.7656V8.45312H32.7109V11.2891H36.3789V12.2148H32.7109V16H31.6562V7.51562ZM38.3359 7.51562H43.4453V8.45312H39.3906V11.2891H43.0586V12.2148H39.3906V16H38.3359V7.51562Z" fill="white"/>
</svg>
