<svg width="48" height="24" viewBox="0 0 48 24" fill="none" xmlns="http://www.w3.org/2000/svg">
    <rect width="48" height="24" rx="12" fill="#D752FF"/>
    <path d="M14.1094 11.7578C14.1094 12.6367 13.9492 13.4062 13.6289 14.0664C13.3086 14.7227 12.8633 15.2285 12.293 15.584C11.7266 15.9395 11.082 16.1172 10.3594 16.1172C9.63281 16.1172 8.98438 15.9395 8.41406 15.584C7.84766 15.2285 7.4043 14.7227 7.08398 14.0664C6.76758 13.4062 6.60938 12.6367 6.60938 11.7578C6.60938 10.8789 6.76758 10.1113 7.08398 9.45508C7.4043 8.79492 7.84766 8.28711 8.41406 7.93164C8.98438 7.57617 9.63281 7.39844 10.3594 7.39844C11.082 7.39844 11.7266 7.57617 12.293 7.93164C12.8633 8.28711 13.3086 8.79492 13.6289 9.45508C13.9492 10.1113 14.1094 10.8789 14.1094 11.7578ZM7.62891 11.7578C7.62891 12.4648 7.74805 13.0723 7.98633 13.5801C8.22461 14.0879 8.54883 14.4727 8.95898 14.7344C9.37305 14.9961 9.83984 15.1289 10.3594 15.1328C10.8789 15.1289 11.3438 14.9961 11.7539 14.7344C12.168 14.4727 12.4941 14.0879 12.7324 13.5801C12.9707 13.0723 13.0898 12.4648 13.0898 11.7578C13.0898 11.0469 12.9707 10.4375 12.7324 9.92969C12.4941 9.42188 12.168 9.03711 11.7539 8.77539C11.3438 8.51367 10.8789 8.38281 10.3594 8.38281C9.83984 8.38281 9.37305 8.51367 8.95898 8.77539C8.54883 9.03711 8.22461 9.42188 7.98633 9.92969C7.74805 10.4375 7.62891 11.0469 7.62891 11.7578ZM22.3945 16H21.3867L16.793 9.39062H16.7109V16H15.6562V7.51562H16.6758L21.2695 14.1367H21.3516V7.51562H22.3945V16Z" fill="white"/>
    <circle cx="36" cy="12" r="9" fill="white"/>
</svg>
